<svg width="122" height="122" viewBox="0 0 122 122" fill="none" xmlns="http://www.w3.org/2000/svg">
<rect x="0.5" y="0.5" width="121" height="121" rx="19.5" fill="#C0C0C0" stroke="url(#paint0_linear_0_1)"/>
<path d="M41.368 53.096V57.032H38.456V73H33.592V57.032H30.68V53.096H33.688C33.304 52.6907 32.92 52.2533 32.536 51.784C32.152 51.2933 31.8 50.8453 31.48 50.44C32.6533 48.6693 33.7733 47.2933 34.84 46.312C35.928 45.3307 37.048 44.648 38.2 44.264C39.3733 43.8587 40.6533 43.656 42.04 43.656C43.064 43.656 44.0453 43.7413 44.984 43.912C45.9227 44.0827 46.904 44.3707 47.928 44.776C48.952 45.16 50.0827 45.6933 51.32 46.376C52.5787 47.0373 54.0187 47.8587 55.64 48.84L53.304 52.104C51.5547 51.016 50.0613 50.1413 48.824 49.48C47.608 48.8187 46.52 48.3387 45.56 48.04C44.6 47.7413 43.608 47.592 42.584 47.592C41.624 47.592 40.792 47.7627 40.088 48.104C39.384 48.4453 38.776 48.8827 38.264 49.416C37.752 49.928 37.2827 50.472 36.856 51.048C37.048 51.3893 37.272 51.752 37.528 52.136C37.784 52.4987 38.0293 52.8187 38.264 53.096H41.368ZM60.6465 53.096V57.032H48.3265V57.8L48.2945 61.224C48.3158 61.4587 48.3372 61.7253 48.3585 62.024C48.3798 62.3013 48.3905 62.568 48.3905 62.824V66.056C48.3905 66.6747 48.4225 67.1227 48.4865 67.4C48.5718 67.6773 48.6998 67.8907 48.8705 68.04C49.1265 68.3173 49.5318 68.456 50.0865 68.456C50.6412 68.456 51.1532 68.3493 51.6225 68.136C52.0918 67.9227 52.5612 67.624 53.0305 67.24C53.4785 66.856 53.8198 66.4507 54.0545 66.024C54.3105 65.5973 54.4385 65.1707 54.4385 64.744C54.4385 64.36 54.3318 64.0827 54.1185 63.912C53.9052 63.7413 53.5852 63.656 53.1585 63.656H52.9025C52.2838 63.656 51.7185 63.592 51.2065 63.464C50.7158 63.3147 50.1825 63.0693 49.6065 62.728C49.2012 62.4933 48.8172 62.216 48.4545 61.896C48.1132 61.576 47.8038 61.2453 47.5265 60.904L48.0065 56.872C48.4118 57.4693 48.8598 57.9707 49.3505 58.376C49.8625 58.7813 50.4492 59.0907 51.1105 59.304C51.7718 59.5173 52.5078 59.624 53.3185 59.624H54.0865C55.1105 59.624 55.9318 59.72 56.5505 59.912C57.1692 60.0827 57.6918 60.3813 58.1185 60.808C58.5025 61.128 58.7798 61.544 58.9505 62.056C59.1425 62.568 59.2385 63.1227 59.2385 63.72C59.2385 64.9573 58.9932 66.0667 58.5025 67.048C58.0118 68.0293 57.3612 68.9147 56.5505 69.704C55.6758 70.5147 54.6625 71.1653 53.5105 71.656C52.3798 72.1467 51.1425 72.392 49.7985 72.392C48.7318 72.392 47.8358 72.2853 47.1105 72.072C46.4065 71.8373 45.8092 71.5173 45.3185 71.112C44.7852 70.6427 44.3478 70.0347 44.0065 69.288C43.6865 68.52 43.5265 67.3573 43.5265 65.8V57.032H40.7425V53.096H60.6465ZM80.6005 73C79.1712 73 77.8378 72.7867 76.6005 72.36C75.3845 71.9333 74.2965 71.368 73.3365 70.664C72.3978 69.9387 71.6085 69.1493 70.9685 68.296L72.2165 64.2C73.8378 64.008 75.1072 63.6667 76.0245 63.176C76.9418 62.6853 77.5818 62.088 77.9445 61.384C78.3285 60.6587 78.5205 59.8587 78.5205 58.984C78.5205 58.7493 78.5098 58.4613 78.4885 58.12C78.4672 57.7573 78.3925 57.3947 78.2645 57.032H70.0405V53.096H76.6325C76.1418 52.456 75.7365 51.8693 75.4165 51.336C75.1178 50.7813 74.8938 50.2587 74.7445 49.768C74.6165 49.256 74.5525 48.744 74.5525 48.232C74.5525 47.3573 74.7658 46.5467 75.1925 45.8C75.6192 45.032 76.3125 44.3173 77.2725 43.656L80.9205 45.544C80.3445 46.056 79.8965 46.6107 79.5765 47.208C79.2565 47.8053 79.0965 48.4133 79.0965 49.032C79.0965 49.544 79.1925 50.024 79.3845 50.472C79.5978 50.8987 79.8965 51.3253 80.2805 51.752C80.6645 52.1787 81.1125 52.6267 81.6245 53.096H91.3525V57.032H87.8965C87.4485 57.032 87.0752 57.032 86.7765 57.032C86.4992 57.0107 86.2005 56.9893 85.8805 56.968C87.2245 58.3547 88.1845 59.7307 88.7605 61.096C89.3578 62.4613 89.6565 63.88 89.6565 65.352C89.6565 66.952 89.3152 68.328 88.6325 69.48C87.9498 70.6107 86.9365 71.4853 85.5925 72.104C84.2485 72.7013 82.5845 73 80.6005 73ZM80.4085 68.936C81.1765 68.936 81.8805 68.808 82.5205 68.552C83.1818 68.2747 83.7045 67.8373 84.0885 67.24C84.4725 66.6213 84.6645 65.8213 84.6645 64.84C84.6645 63.9013 84.5258 62.984 84.2485 62.088C83.9712 61.1707 83.5125 60.2427 82.8725 59.304C82.2538 58.344 81.4432 57.32 80.4405 56.232L81.4325 56.008C81.6885 56.5413 81.9445 57.2027 82.2005 57.992C82.4778 58.7813 82.6165 59.528 82.6165 60.232C82.6165 61.1493 82.4885 62.0133 82.2325 62.824C81.9765 63.6133 81.5392 64.3387 80.9205 65C80.3232 65.64 79.5018 66.216 78.4565 66.728C77.4112 67.2187 76.1098 67.6347 74.5525 67.976L75.0965 65.672C75.4165 66.312 75.8218 66.888 76.3125 67.4C76.8245 67.8907 77.4218 68.2747 78.1045 68.552C78.8085 68.808 79.5765 68.936 80.4085 68.936ZM70.6805 53.096V57.032H67.7685V73H62.9045V57.032H59.9925V53.096H63.0005C62.6165 52.6693 62.2325 52.2107 61.8485 51.72C61.4858 51.208 61.1552 50.728 60.8565 50.28C62.1365 48.616 63.3525 47.3253 64.5045 46.408C65.6565 45.4907 66.8298 44.8507 68.0245 44.488C69.2405 44.1253 70.5525 43.944 71.9605 43.944C73.1125 43.944 74.3605 44.1253 75.7045 44.488C77.0485 44.8293 78.5418 45.384 80.1845 46.152C81.8485 46.92 83.7045 47.9333 85.7525 49.192L83.4165 52.36C81.8592 51.208 80.4298 50.3013 79.1285 49.64C77.8485 48.9787 76.6538 48.5093 75.5445 48.232C74.4565 47.9547 73.4218 47.816 72.4405 47.816C71.5018 47.816 70.6485 47.9653 69.8805 48.264C69.1338 48.5413 68.4512 48.9253 67.8325 49.416C67.2352 49.9067 66.6912 50.4613 66.2005 51.08C66.3925 51.4213 66.6058 51.7733 66.8405 52.136C67.0965 52.4987 67.3418 52.8187 67.5765 53.096H70.6805Z" fill="#FA0004" fill-opacity="0.77"/>
<defs>
<linearGradient id="paint0_linear_0_1" x1="121" y1="61.2963" x2="1.00001" y2="60.7037" gradientUnits="userSpaceOnUse">
<stop stop-color="#E20505"/>
<stop offset="1" stop-color="#E90F13"/>
</linearGradient>
</defs>
</svg>
