<svg width="140" height="140" viewBox="0 0 140 140" fill="none" xmlns="http://www.w3.org/2000/svg">
<rect width="140" height="140" rx="19" fill="#D9D9D9"/>
<path d="M50.368 61.096V65.032H47.456V81H42.592V65.032H39.68V61.096H42.688C42.304 60.6907 41.92 60.2533 41.536 59.784C41.152 59.2933 40.8 58.8453 40.48 58.44C41.6533 56.6693 42.7733 55.2933 43.84 54.312C44.928 53.3307 46.048 52.648 47.2 52.264C48.3733 51.8587 49.6533 51.656 51.04 51.656C52.064 51.656 53.0453 51.7413 53.984 51.912C54.9227 52.0827 55.904 52.3707 56.928 52.776C57.952 53.16 59.0827 53.6933 60.32 54.376C61.5787 55.0373 63.0187 55.8587 64.64 56.84L62.304 60.104C60.5547 59.016 59.0613 58.1413 57.824 57.48C56.608 56.8187 55.52 56.3387 54.56 56.04C53.6 55.7413 52.608 55.592 51.584 55.592C50.624 55.592 49.792 55.7627 49.088 56.104C48.384 56.4453 47.776 56.8827 47.264 57.416C46.752 57.928 46.2827 58.472 45.856 59.048C46.048 59.3893 46.272 59.752 46.528 60.136C46.784 60.4987 47.0293 60.8187 47.264 61.096H50.368ZM69.6465 61.096V65.032H57.3265V65.8L57.2945 69.224C57.3158 69.4587 57.3372 69.7253 57.3585 70.024C57.3798 70.3013 57.3905 70.568 57.3905 70.824V74.056C57.3905 74.6747 57.4225 75.1227 57.4865 75.4C57.5718 75.6773 57.6998 75.8907 57.8705 76.04C58.1265 76.3173 58.5318 76.456 59.0865 76.456C59.6412 76.456 60.1532 76.3493 60.6225 76.136C61.0918 75.9227 61.5612 75.624 62.0305 75.24C62.4785 74.856 62.8198 74.4507 63.0545 74.024C63.3105 73.5973 63.4385 73.1707 63.4385 72.744C63.4385 72.36 63.3318 72.0827 63.1185 71.912C62.9052 71.7413 62.5852 71.656 62.1585 71.656H61.9025C61.2838 71.656 60.7185 71.592 60.2065 71.464C59.7158 71.3147 59.1825 71.0693 58.6065 70.728C58.2012 70.4933 57.8172 70.216 57.4545 69.896C57.1132 69.576 56.8038 69.2453 56.5265 68.904L57.0065 64.872C57.4118 65.4693 57.8598 65.9707 58.3505 66.376C58.8625 66.7813 59.4492 67.0907 60.1105 67.304C60.7718 67.5173 61.5078 67.624 62.3185 67.624H63.0865C64.1105 67.624 64.9318 67.72 65.5505 67.912C66.1692 68.0827 66.6918 68.3813 67.1185 68.808C67.5025 69.128 67.7798 69.544 67.9505 70.056C68.1425 70.568 68.2385 71.1227 68.2385 71.72C68.2385 72.9573 67.9932 74.0667 67.5025 75.048C67.0118 76.0293 66.3612 76.9147 65.5505 77.704C64.6758 78.5147 63.6625 79.1653 62.5105 79.656C61.3798 80.1467 60.1425 80.392 58.7985 80.392C57.7318 80.392 56.8358 80.2853 56.1105 80.072C55.4065 79.8373 54.8092 79.5173 54.3185 79.112C53.7852 78.6427 53.3478 78.0347 53.0065 77.288C52.6865 76.52 52.5265 75.3573 52.5265 73.8V65.032H49.7425V61.096H69.6465ZM89.6005 81C88.1712 81 86.8378 80.7867 85.6005 80.36C84.3845 79.9333 83.2965 79.368 82.3365 78.664C81.3978 77.9387 80.6085 77.1493 79.9685 76.296L81.2165 72.2C82.8378 72.008 84.1072 71.6667 85.0245 71.176C85.9418 70.6853 86.5818 70.088 86.9445 69.384C87.3285 68.6587 87.5205 67.8587 87.5205 66.984C87.5205 66.7493 87.5098 66.4613 87.4885 66.12C87.4672 65.7573 87.3925 65.3947 87.2645 65.032H79.0405V61.096H85.6325C85.1418 60.456 84.7365 59.8693 84.4165 59.336C84.1178 58.7813 83.8938 58.2587 83.7445 57.768C83.6165 57.256 83.5525 56.744 83.5525 56.232C83.5525 55.3573 83.7658 54.5467 84.1925 53.8C84.6192 53.032 85.3125 52.3173 86.2725 51.656L89.9205 53.544C89.3445 54.056 88.8965 54.6107 88.5765 55.208C88.2565 55.8053 88.0965 56.4133 88.0965 57.032C88.0965 57.544 88.1925 58.024 88.3845 58.472C88.5978 58.8987 88.8965 59.3253 89.2805 59.752C89.6645 60.1787 90.1125 60.6267 90.6245 61.096H100.353V65.032H96.8965C96.4485 65.032 96.0752 65.032 95.7765 65.032C95.4992 65.0107 95.2005 64.9893 94.8805 64.968C96.2245 66.3547 97.1845 67.7307 97.7605 69.096C98.3578 70.4613 98.6565 71.88 98.6565 73.352C98.6565 74.952 98.3152 76.328 97.6325 77.48C96.9498 78.6107 95.9365 79.4853 94.5925 80.104C93.2485 80.7013 91.5845 81 89.6005 81ZM89.4085 76.936C90.1765 76.936 90.8805 76.808 91.5205 76.552C92.1818 76.2747 92.7045 75.8373 93.0885 75.24C93.4725 74.6213 93.6645 73.8213 93.6645 72.84C93.6645 71.9013 93.5258 70.984 93.2485 70.088C92.9712 69.1707 92.5125 68.2427 91.8725 67.304C91.2538 66.344 90.4432 65.32 89.4405 64.232L90.4325 64.008C90.6885 64.5413 90.9445 65.2027 91.2005 65.992C91.4778 66.7813 91.6165 67.528 91.6165 68.232C91.6165 69.1493 91.4885 70.0133 91.2325 70.824C90.9765 71.6133 90.5392 72.3387 89.9205 73C89.3232 73.64 88.5018 74.216 87.4565 74.728C86.4112 75.2187 85.1098 75.6347 83.5525 75.976L84.0965 73.672C84.4165 74.312 84.8218 74.888 85.3125 75.4C85.8245 75.8907 86.4218 76.2747 87.1045 76.552C87.8085 76.808 88.5765 76.936 89.4085 76.936ZM79.6805 61.096V65.032H76.7685V81H71.9045V65.032H68.9925V61.096H72.0005C71.6165 60.6693 71.2325 60.2107 70.8485 59.72C70.4858 59.208 70.1552 58.728 69.8565 58.28C71.1365 56.616 72.3525 55.3253 73.5045 54.408C74.6565 53.4907 75.8298 52.8507 77.0245 52.488C78.2405 52.1253 79.5525 51.944 80.9605 51.944C82.1125 51.944 83.3605 52.1253 84.7045 52.488C86.0485 52.8293 87.5418 53.384 89.1845 54.152C90.8485 54.92 92.7045 55.9333 94.7525 57.192L92.4165 60.36C90.8592 59.208 89.4298 58.3013 88.1285 57.64C86.8485 56.9787 85.6538 56.5093 84.5445 56.232C83.4565 55.9547 82.4218 55.816 81.4405 55.816C80.5018 55.816 79.6485 55.9653 78.8805 56.264C78.1338 56.5413 77.4512 56.9253 76.8325 57.416C76.2352 57.9067 75.6912 58.4613 75.2005 59.08C75.3925 59.4213 75.6058 59.7733 75.8405 60.136C76.0965 60.4987 76.3418 60.8187 76.5765 61.096H79.6805Z" fill="#FA0509" fill-opacity="0.77"/>
</svg>
