<svg width="140" height="140" viewBox="0 0 140 140" fill="none" xmlns="http://www.w3.org/2000/svg">
<rect width="140" height="140" rx="19" fill="#D9D9D9"/>
<path d="M51.832 61.096V63.368H48.472V81H46.008V63.368H42.68V61.096H45.624C45.2827 60.6907 44.9307 60.264 44.568 59.816C44.2267 59.368 43.9173 58.92 43.64 58.472C44.3653 57.2133 45.144 56.072 45.976 55.048C46.808 54.0027 47.7893 53.1813 48.92 52.584C50.0507 51.9653 51.416 51.656 53.016 51.656C54.1467 51.656 55.224 51.7947 56.248 52.072C57.2933 52.3493 58.3173 52.7547 59.32 53.288C60.3227 53.8 61.336 54.4293 62.36 55.176C63.384 55.9013 64.4507 56.712 65.56 57.608L64.216 59.336C62.744 58.1413 61.4107 57.1493 60.216 56.36C59.0427 55.5707 57.912 54.984 56.824 54.6C55.7573 54.1947 54.616 53.992 53.4 53.992C52.2267 53.992 51.2027 54.1947 50.328 54.6C49.4747 55.0053 48.728 55.5707 48.088 56.296C47.4693 57.0213 46.904 57.864 46.392 58.824C46.5627 59.144 46.7973 59.496 47.096 59.88C47.3947 60.264 47.736 60.6693 48.12 61.096H51.832ZM69.964 61.096V63.368H57.004V64.328L56.876 66.344C56.9187 66.6213 56.9507 67.0053 56.972 67.496C56.9933 67.9867 57.004 68.456 57.004 68.904V74.44C57.004 75.3787 57.0573 76.04 57.164 76.424C57.2707 76.808 57.3987 77.0853 57.548 77.256C57.932 77.704 58.5187 77.928 59.308 77.928C60.1613 77.928 60.9507 77.7253 61.676 77.32C62.4013 76.9147 63.052 76.4133 63.628 75.816C64.2253 75.176 64.684 74.504 65.004 73.8C65.3453 73.0747 65.516 72.3173 65.516 71.528C65.516 70.824 65.3133 70.3653 64.908 70.152C64.524 69.9387 63.98 69.832 63.276 69.832H63.116C62.1347 69.832 61.3453 69.7573 60.748 69.608C60.1507 69.4373 59.5747 69.2133 59.02 68.936C58.5293 68.6587 58.0707 68.3387 57.644 67.976C57.2387 67.592 56.908 67.1653 56.652 66.696L56.972 63.912C57.42 64.68 57.8893 65.3307 58.38 65.864C58.8707 66.376 59.4787 66.7707 60.204 67.048C60.9507 67.3253 61.9 67.464 63.052 67.464H63.564C64.3747 67.464 64.9933 67.5173 65.42 67.624C65.868 67.7307 66.2627 67.8907 66.604 68.104C67.0947 68.4027 67.4573 68.8187 67.692 69.352C67.9267 69.864 68.044 70.4827 68.044 71.208C68.044 72.5093 67.7347 73.7573 67.116 74.952C66.4973 76.1467 65.7187 77.1493 64.78 77.96C63.9693 78.664 63.1053 79.2187 62.188 79.624C61.2707 80.0293 60.2467 80.232 59.116 80.232C58.3267 80.232 57.6547 80.1147 57.1 79.88C56.5453 79.6453 56.0867 79.3467 55.724 78.984C55.3827 78.5787 55.0947 78.088 54.86 77.512C54.6467 76.936 54.54 76.0613 54.54 74.888V63.368H51.18V61.096H69.964ZM87.1923 81C85.9123 81 84.7496 80.776 83.7043 80.328C82.6589 79.8587 81.7629 79.2187 81.0163 78.408C80.2909 77.5973 79.7256 76.6693 79.3203 75.624L80.0243 73.096C81.7736 72.9253 83.1176 72.5413 84.0563 71.944C84.9949 71.3467 85.6456 70.6 86.0083 69.704C86.3923 68.7867 86.5843 67.7733 86.5843 66.664C86.5843 66.1733 86.5309 65.64 86.4243 65.064C86.3176 64.488 86.1469 63.9227 85.9123 63.368H77.8483V61.096H84.5683C84.1203 60.4773 83.7576 59.9013 83.4803 59.368C83.2243 58.8133 83.0323 58.2907 82.9043 57.8C82.7976 57.288 82.7443 56.7973 82.7443 56.328C82.7443 55.5813 82.9469 54.8133 83.3523 54.024C83.7789 53.2347 84.3763 52.4453 85.1443 51.656L87.0963 53.192C86.4989 53.7253 86.0403 54.2693 85.7203 54.824C85.4216 55.3573 85.2723 55.9333 85.2723 56.552C85.2723 57 85.3363 57.4587 85.4643 57.928C85.6136 58.376 85.8483 58.8667 86.1683 59.4C86.5096 59.912 86.9469 60.4773 87.4803 61.096H97.4003V63.368H91.8323C91.4269 63.368 91.0749 63.368 90.7763 63.368C90.4776 63.3467 90.1683 63.3253 89.8483 63.304C91.4056 64.8613 92.6643 66.4293 93.6243 68.008C94.6056 69.5867 95.0963 71.3573 95.0963 73.32C95.0963 74.8347 94.7869 76.168 94.1683 77.32C93.5496 78.472 92.6536 79.3787 91.4803 80.04C90.3069 80.68 88.8776 81 87.1923 81ZM87.1283 78.632C88.3656 78.632 89.3789 78.376 90.1683 77.864C90.9576 77.352 91.5443 76.68 91.9283 75.848C92.3123 75.016 92.5043 74.1307 92.5043 73.192C92.5043 72.2107 92.3443 71.2507 92.0243 70.312C91.7256 69.3733 91.2136 68.3813 90.4883 67.336C89.7629 66.2907 88.7816 65.128 87.5443 63.848L88.0563 63.976C88.2696 64.5733 88.4509 65.192 88.6003 65.832C88.7496 66.4507 88.8243 67.176 88.8243 68.008C88.8243 68.7973 88.7069 69.5867 88.4722 70.376C88.2376 71.144 87.8323 71.8693 87.2563 72.552C86.6803 73.2347 85.8696 73.8427 84.8243 74.376C83.8003 74.9093 82.4989 75.3253 80.9203 75.624L81.3683 73.672C81.5816 74.8027 81.9763 75.7413 82.5523 76.488C83.1283 77.2133 83.8216 77.7573 84.6323 78.12C85.4429 78.4613 86.2749 78.632 87.1283 78.632ZM78.4883 61.096V63.368H75.1283V81H72.6643V63.368H69.3362V61.096H72.2803C71.9389 60.6907 71.5869 60.264 71.2243 59.816C70.8829 59.368 70.5736 58.92 70.2963 58.472C71.0003 57.3627 71.7789 56.3387 72.6323 55.4C73.4856 54.44 74.4776 53.672 75.6083 53.096C76.7603 52.4987 78.1149 52.2 79.6723 52.2C81.1016 52.2 82.4989 52.4667 83.8643 53C85.2509 53.512 86.6376 54.1947 88.0243 55.048C89.4109 55.9013 90.8083 56.8187 92.2163 57.8L90.8723 59.528C89.4216 58.4613 88.0776 57.5653 86.8403 56.84C85.6029 56.0933 84.4296 55.528 83.3203 55.144C82.2109 54.7387 81.1229 54.536 80.0563 54.536C78.9469 54.536 77.9656 54.7173 77.1123 55.08C76.2589 55.4427 75.5016 55.944 74.8403 56.584C74.1789 57.224 73.5816 57.9707 73.0483 58.824C73.2189 59.144 73.4536 59.496 73.7523 59.88C74.0509 60.264 74.3923 60.6693 74.7763 61.096H78.4883Z" fill="#FA0509" fill-opacity="0.77"/>
</svg>
