<svg width="336" height="122" viewBox="0 0 336 122" fill="none" xmlns="http://www.w3.org/2000/svg">
<rect x="0.5" y="0.5" width="121" height="121" rx="19.5" fill="#C0C0C0" stroke="url(#paint0_linear_0_1)"/>
<path d="M41.368 53.096V57.032H38.456V73H33.592V57.032H30.68V53.096H33.688C33.304 52.6907 32.92 52.2533 32.536 51.784C32.152 51.2933 31.8 50.8453 31.48 50.44C32.6533 48.6693 33.7733 47.2933 34.84 46.312C35.928 45.3307 37.048 44.648 38.2 44.264C39.3733 43.8587 40.6533 43.656 42.04 43.656C43.064 43.656 44.0453 43.7413 44.984 43.912C45.9227 44.0827 46.904 44.3707 47.928 44.776C48.952 45.16 50.0827 45.6933 51.32 46.376C52.5787 47.0373 54.0187 47.8587 55.64 48.84L53.304 52.104C51.5547 51.016 50.0613 50.1413 48.824 49.48C47.608 48.8187 46.52 48.3387 45.56 48.04C44.6 47.7413 43.608 47.592 42.584 47.592C41.624 47.592 40.792 47.7627 40.088 48.104C39.384 48.4453 38.776 48.8827 38.264 49.416C37.752 49.928 37.2827 50.472 36.856 51.048C37.048 51.3893 37.272 51.752 37.528 52.136C37.784 52.4987 38.0293 52.8187 38.264 53.096H41.368ZM60.6465 53.096V57.032H48.3265V57.8L48.2945 61.224C48.3158 61.4587 48.3372 61.7253 48.3585 62.024C48.3798 62.3013 48.3905 62.568 48.3905 62.824V66.056C48.3905 66.6747 48.4225 67.1227 48.4865 67.4C48.5718 67.6773 48.6998 67.8907 48.8705 68.04C49.1265 68.3173 49.5318 68.456 50.0865 68.456C50.6412 68.456 51.1532 68.3493 51.6225 68.136C52.0918 67.9227 52.5612 67.624 53.0305 67.24C53.4785 66.856 53.8198 66.4507 54.0545 66.024C54.3105 65.5973 54.4385 65.1707 54.4385 64.744C54.4385 64.36 54.3318 64.0827 54.1185 63.912C53.9052 63.7413 53.5852 63.656 53.1585 63.656H52.9025C52.2838 63.656 51.7185 63.592 51.2065 63.464C50.7158 63.3147 50.1825 63.0693 49.6065 62.728C49.2012 62.4933 48.8172 62.216 48.4545 61.896C48.1132 61.576 47.8038 61.2453 47.5265 60.904L48.0065 56.872C48.4118 57.4693 48.8598 57.9707 49.3505 58.376C49.8625 58.7813 50.4492 59.0907 51.1105 59.304C51.7718 59.5173 52.5078 59.624 53.3185 59.624H54.0865C55.1105 59.624 55.9318 59.72 56.5505 59.912C57.1692 60.0827 57.6918 60.3813 58.1185 60.808C58.5025 61.128 58.7798 61.544 58.9505 62.056C59.1425 62.568 59.2385 63.1227 59.2385 63.72C59.2385 64.9573 58.9932 66.0667 58.5025 67.048C58.0118 68.0293 57.3612 68.9147 56.5505 69.704C55.6758 70.5147 54.6625 71.1653 53.5105 71.656C52.3798 72.1467 51.1425 72.392 49.7985 72.392C48.7318 72.392 47.8358 72.2853 47.1105 72.072C46.4065 71.8373 45.8092 71.5173 45.3185 71.112C44.7852 70.6427 44.3478 70.0347 44.0065 69.288C43.6865 68.52 43.5265 67.3573 43.5265 65.8V57.032H40.7425V53.096H60.6465ZM80.6005 73C79.1712 73 77.8378 72.7867 76.6005 72.36C75.3845 71.9333 74.2965 71.368 73.3365 70.664C72.3978 69.9387 71.6085 69.1493 70.9685 68.296L72.2165 64.2C73.8378 64.008 75.1072 63.6667 76.0245 63.176C76.9418 62.6853 77.5818 62.088 77.9445 61.384C78.3285 60.6587 78.5205 59.8587 78.5205 58.984C78.5205 58.7493 78.5098 58.4613 78.4885 58.12C78.4672 57.7573 78.3925 57.3947 78.2645 57.032H70.0405V53.096H76.6325C76.1418 52.456 75.7365 51.8693 75.4165 51.336C75.1178 50.7813 74.8938 50.2587 74.7445 49.768C74.6165 49.256 74.5525 48.744 74.5525 48.232C74.5525 47.3573 74.7658 46.5467 75.1925 45.8C75.6192 45.032 76.3125 44.3173 77.2725 43.656L80.9205 45.544C80.3445 46.056 79.8965 46.6107 79.5765 47.208C79.2565 47.8053 79.0965 48.4133 79.0965 49.032C79.0965 49.544 79.1925 50.024 79.3845 50.472C79.5978 50.8987 79.8965 51.3253 80.2805 51.752C80.6645 52.1787 81.1125 52.6267 81.6245 53.096H91.3525V57.032H87.8965C87.4485 57.032 87.0752 57.032 86.7765 57.032C86.4992 57.0107 86.2005 56.9893 85.8805 56.968C87.2245 58.3547 88.1845 59.7307 88.7605 61.096C89.3578 62.4613 89.6565 63.88 89.6565 65.352C89.6565 66.952 89.3152 68.328 88.6325 69.48C87.9498 70.6107 86.9365 71.4853 85.5925 72.104C84.2485 72.7013 82.5845 73 80.6005 73ZM80.4085 68.936C81.1765 68.936 81.8805 68.808 82.5205 68.552C83.1818 68.2747 83.7045 67.8373 84.0885 67.24C84.4725 66.6213 84.6645 65.8213 84.6645 64.84C84.6645 63.9013 84.5258 62.984 84.2485 62.088C83.9712 61.1707 83.5125 60.2427 82.8725 59.304C82.2538 58.344 81.4432 57.32 80.4405 56.232L81.4325 56.008C81.6885 56.5413 81.9445 57.2027 82.2005 57.992C82.4778 58.7813 82.6165 59.528 82.6165 60.232C82.6165 61.1493 82.4885 62.0133 82.2325 62.824C81.9765 63.6133 81.5392 64.3387 80.9205 65C80.3232 65.64 79.5018 66.216 78.4565 66.728C77.4112 67.2187 76.1098 67.6347 74.5525 67.976L75.0965 65.672C75.4165 66.312 75.8218 66.888 76.3125 67.4C76.8245 67.8907 77.4218 68.2747 78.1045 68.552C78.8085 68.808 79.5765 68.936 80.4085 68.936ZM70.6805 53.096V57.032H67.7685V73H62.9045V57.032H59.9925V53.096H63.0005C62.6165 52.6693 62.2325 52.2107 61.8485 51.72C61.4858 51.208 61.1552 50.728 60.8565 50.28C62.1365 48.616 63.3525 47.3253 64.5045 46.408C65.6565 45.4907 66.8298 44.8507 68.0245 44.488C69.2405 44.1253 70.5525 43.944 71.9605 43.944C73.1125 43.944 74.3605 44.1253 75.7045 44.488C77.0485 44.8293 78.5418 45.384 80.1845 46.152C81.8485 46.92 83.7045 47.9333 85.7525 49.192L83.4165 52.36C81.8592 51.208 80.4298 50.3013 79.1285 49.64C77.8485 48.9787 76.6538 48.5093 75.5445 48.232C74.4565 47.9547 73.4218 47.816 72.4405 47.816C71.5018 47.816 70.6485 47.9653 69.8805 48.264C69.1338 48.5413 68.4512 48.9253 67.8325 49.416C67.2352 49.9067 66.6912 50.4613 66.2005 51.08C66.3925 51.4213 66.6058 51.7733 66.8405 52.136C67.0965 52.4987 67.3418 52.8187 67.5765 53.096H70.6805Z" fill="#FA0004" fill-opacity="0.77"/>
<path d="M154.64 54.888C153.915 54.888 153.264 55.048 152.688 55.368C152.112 55.6667 151.621 56.1147 151.216 56.712C150.811 57.288 150.501 57.992 150.288 58.824C150.075 59.656 149.968 60.6053 149.968 61.672C149.968 63.1013 150.149 64.3067 150.512 65.288C150.875 66.2693 151.429 67.016 152.176 67.528C152.923 68.0187 153.861 68.264 154.992 68.264C155.995 68.264 156.965 68.1253 157.904 67.848C158.864 67.5707 159.824 67.2293 160.784 66.824V72.04C159.781 72.488 158.747 72.808 157.68 73C156.635 73.2133 155.515 73.32 154.32 73.32C151.845 73.32 149.819 72.8293 148.24 71.848C146.661 70.8667 145.499 69.5013 144.752 67.752C144.005 65.9813 143.632 63.944 143.632 61.64C143.632 59.912 143.867 58.3333 144.336 56.904C144.827 55.4533 145.541 54.2053 146.48 53.16C147.419 52.0933 148.571 51.272 149.936 50.696C151.323 50.12 152.912 49.832 154.704 49.832C155.813 49.832 156.976 49.96 158.192 50.216C159.408 50.472 160.603 50.8773 161.776 51.432L159.888 56.296C159.056 55.8907 158.213 55.56 157.36 55.304C156.507 55.0267 155.6 54.888 154.64 54.888ZM171.005 52.136C171.005 53.4373 170.973 54.536 170.909 55.432C170.845 56.328 170.792 57.0107 170.749 57.48H171.037C171.421 56.8613 171.848 56.3707 172.317 56.008C172.808 55.6453 173.352 55.3893 173.949 55.24C174.547 55.0693 175.197 54.984 175.901 54.984C177.075 54.984 178.131 55.208 179.069 55.656C180.008 56.104 180.755 56.808 181.309 57.768C181.885 58.7067 182.173 59.944 182.173 61.48V73H176.029V63.336C176.029 62.1627 175.859 61.2773 175.517 60.68C175.176 60.0827 174.643 59.784 173.917 59.784C173.192 59.784 172.616 59.9973 172.189 60.424C171.763 60.8507 171.453 61.4693 171.261 62.28C171.091 63.0693 171.005 64.0507 171.005 65.224V73H164.893V48.68H171.005V52.136ZM192.475 55.304V73H186.363V55.304H192.475ZM189.435 48.168C190.309 48.168 191.067 48.3493 191.707 48.712C192.368 49.0747 192.699 49.8 192.699 50.888C192.699 51.9333 192.368 52.648 191.707 53.032C191.067 53.3947 190.309 53.576 189.435 53.576C188.539 53.576 187.771 53.3947 187.131 53.032C186.512 52.648 186.203 51.9333 186.203 50.888C186.203 49.8 186.512 49.0747 187.131 48.712C187.771 48.3493 188.539 48.168 189.435 48.168ZM205.409 68.488C205.964 68.488 206.465 68.4347 206.913 68.328C207.382 68.2 207.862 68.0507 208.353 67.88V72.328C207.692 72.6053 206.988 72.84 206.241 73.032C205.494 73.224 204.545 73.32 203.393 73.32C202.241 73.32 201.228 73.1387 200.353 72.776C199.5 72.4133 198.828 71.7947 198.337 70.92C197.846 70.024 197.601 68.776 197.601 67.176V59.88H195.457V57.384L198.177 55.464L199.745 51.752H203.745V55.304H208.097V59.88H203.745V66.76C203.745 67.336 203.884 67.7733 204.161 68.072C204.46 68.3493 204.876 68.488 205.409 68.488ZM217.568 52.136C217.568 53.4373 217.536 54.536 217.472 55.432C217.408 56.328 217.354 57.0107 217.312 57.48H217.6C217.984 56.8613 218.41 56.3707 218.88 56.008C219.37 55.6453 219.914 55.3893 220.512 55.24C221.109 55.0693 221.76 54.984 222.464 54.984C223.637 54.984 224.693 55.208 225.632 55.656C226.57 56.104 227.317 56.808 227.872 57.768C228.448 58.7067 228.736 59.944 228.736 61.48V73H222.592V63.336C222.592 62.1627 222.421 61.2773 222.08 60.68C221.738 60.0827 221.205 59.784 220.48 59.784C219.754 59.784 219.178 59.9973 218.752 60.424C218.325 60.8507 218.016 61.4693 217.824 62.28C217.653 63.0693 217.568 64.0507 217.568 65.224V73H211.456V48.68H217.568V52.136ZM239.037 55.304V73H232.925V55.304H239.037ZM235.997 48.168C236.872 48.168 237.629 48.3493 238.269 48.712C238.931 49.0747 239.261 49.8 239.261 50.888C239.261 51.9333 238.931 52.648 238.269 53.032C237.629 53.3947 236.872 53.576 235.997 53.576C235.101 53.576 234.333 53.3947 233.693 53.032C233.075 52.648 232.765 51.9333 232.765 50.888C232.765 49.8 233.075 49.0747 233.693 48.712C234.333 48.3493 235.101 48.168 235.997 48.168ZM257.372 77C255.857 74.9947 254.716 72.7227 253.948 70.184C253.18 67.6453 252.796 65.0533 252.796 62.408C252.796 59.72 253.18 57.096 253.948 54.536C254.716 51.976 255.857 49.6827 257.372 47.656H261.82C260.369 49.768 259.292 52.1147 258.588 54.696C257.884 57.256 257.532 59.8373 257.532 62.44C257.532 64.9573 257.884 67.496 258.588 70.056C259.292 72.5947 260.359 74.9093 261.788 77H257.372ZM274.618 53.096V57.032H271.706V73H266.842V57.032H263.93V53.096H266.938C266.554 52.6907 266.17 52.2533 265.786 51.784C265.402 51.2933 265.05 50.8453 264.73 50.44C265.903 48.6693 267.023 47.2933 268.09 46.312C269.178 45.3307 270.298 44.648 271.45 44.264C272.623 43.8587 273.903 43.656 275.29 43.656C276.314 43.656 277.295 43.7413 278.234 43.912C279.173 44.0827 280.154 44.3707 281.178 44.776C282.202 45.16 283.333 45.6933 284.57 46.376C285.829 47.0373 287.269 47.8587 288.89 48.84L286.554 52.104C284.805 51.016 283.311 50.1413 282.074 49.48C280.858 48.8187 279.77 48.3387 278.81 48.04C277.85 47.7413 276.858 47.592 275.834 47.592C274.874 47.592 274.042 47.7627 273.338 48.104C272.634 48.4453 272.026 48.8827 271.514 49.416C271.002 49.928 270.533 50.472 270.106 51.048C270.298 51.3893 270.522 51.752 270.778 52.136C271.034 52.4987 271.279 52.8187 271.514 53.096H274.618ZM293.897 53.096V57.032H281.577V57.8L281.545 61.224C281.566 61.4587 281.587 61.7253 281.609 62.024C281.63 62.3013 281.641 62.568 281.641 62.824V66.056C281.641 66.6747 281.673 67.1227 281.737 67.4C281.822 67.6773 281.95 67.8907 282.121 68.04C282.377 68.3173 282.782 68.456 283.337 68.456C283.891 68.456 284.403 68.3493 284.873 68.136C285.342 67.9227 285.811 67.624 286.281 67.24C286.729 66.856 287.07 66.4507 287.305 66.024C287.561 65.5973 287.689 65.1707 287.689 64.744C287.689 64.36 287.582 64.0827 287.369 63.912C287.155 63.7413 286.835 63.656 286.409 63.656H286.153C285.534 63.656 284.969 63.592 284.457 63.464C283.966 63.3147 283.433 63.0693 282.857 62.728C282.451 62.4933 282.067 62.216 281.705 61.896C281.363 61.576 281.054 61.2453 280.777 60.904L281.257 56.872C281.662 57.4693 282.11 57.9707 282.601 58.376C283.113 58.7813 283.699 59.0907 284.361 59.304C285.022 59.5173 285.758 59.624 286.569 59.624H287.337C288.361 59.624 289.182 59.72 289.801 59.912C290.419 60.0827 290.942 60.3813 291.369 60.808C291.753 61.128 292.03 61.544 292.201 62.056C292.393 62.568 292.489 63.1227 292.489 63.72C292.489 64.9573 292.243 66.0667 291.753 67.048C291.262 68.0293 290.611 68.9147 289.801 69.704C288.926 70.5147 287.913 71.1653 286.761 71.656C285.63 72.1467 284.393 72.392 283.049 72.392C281.982 72.392 281.086 72.2853 280.361 72.072C279.657 71.8373 279.059 71.5173 278.569 71.112C278.035 70.6427 277.598 70.0347 277.257 69.288C276.937 68.52 276.777 67.3573 276.777 65.8V57.032H273.992V53.096H293.897ZM313.851 73C312.421 73 311.088 72.7867 309.851 72.36C308.635 71.9333 307.547 71.368 306.587 70.664C305.648 69.9387 304.859 69.1493 304.219 68.296L305.467 64.2C307.088 64.008 308.357 63.6667 309.275 63.176C310.192 62.6853 310.832 62.088 311.194 61.384C311.579 60.6587 311.771 59.8587 311.771 58.984C311.771 58.7493 311.76 58.4613 311.739 58.12C311.717 57.7573 311.643 57.3947 311.515 57.032H303.291V53.096H309.883C309.392 52.456 308.987 51.8693 308.667 51.336C308.368 50.7813 308.144 50.2587 307.995 49.768C307.867 49.256 307.803 48.744 307.803 48.232C307.803 47.3573 308.016 46.5467 308.443 45.8C308.869 45.032 309.563 44.3173 310.523 43.656L314.171 45.544C313.595 46.056 313.147 46.6107 312.827 47.208C312.507 47.8053 312.347 48.4133 312.347 49.032C312.347 49.544 312.443 50.024 312.635 50.472C312.848 50.8987 313.147 51.3253 313.531 51.752C313.915 52.1787 314.363 52.6267 314.875 53.096H324.603V57.032H321.147C320.699 57.032 320.325 57.032 320.027 57.032C319.749 57.0107 319.451 56.9893 319.131 56.968C320.475 58.3547 321.435 59.7307 322.011 61.096C322.608 62.4613 322.907 63.88 322.907 65.352C322.907 66.952 322.565 68.328 321.883 69.48C321.2 70.6107 320.187 71.4853 318.843 72.104C317.499 72.7013 315.835 73 313.851 73ZM313.659 68.936C314.427 68.936 315.131 68.808 315.771 68.552C316.432 68.2747 316.955 67.8373 317.339 67.24C317.723 66.6213 317.915 65.8213 317.915 64.84C317.915 63.9013 317.776 62.984 317.499 62.088C317.221 61.1707 316.763 60.2427 316.123 59.304C315.504 58.344 314.693 57.32 313.691 56.232L314.683 56.008C314.939 56.5413 315.195 57.2027 315.451 57.992C315.728 58.7813 315.867 59.528 315.867 60.232C315.867 61.1493 315.739 62.0133 315.483 62.824C315.227 63.6133 314.789 64.3387 314.171 65C313.573 65.64 312.752 66.216 311.707 66.728C310.661 67.2187 309.36 67.6347 307.803 67.976L308.347 65.672C308.667 66.312 309.072 66.888 309.562 67.4C310.075 67.8907 310.672 68.2747 311.355 68.552C312.059 68.808 312.827 68.936 313.659 68.936ZM303.931 53.096V57.032H301.019V73H296.155V57.032H293.242V53.096H296.251C295.867 52.6693 295.482 52.2107 295.099 51.72C294.736 51.208 294.405 50.728 294.107 50.28C295.387 48.616 296.603 47.3253 297.755 46.408C298.907 45.4907 300.08 44.8507 301.275 44.488C302.491 44.1253 303.803 43.944 305.211 43.944C306.363 43.944 307.611 44.1253 308.955 44.488C310.299 44.8293 311.792 45.384 313.435 46.152C315.099 46.92 316.955 47.9333 319.003 49.192L316.667 52.36C315.109 51.208 313.68 50.3013 312.378 49.64C311.098 48.9787 309.904 48.5093 308.795 48.232C307.707 47.9547 306.672 47.816 305.691 47.816C304.752 47.816 303.899 47.9653 303.131 48.264C302.384 48.5413 301.701 48.9253 301.083 49.416C300.485 49.9067 299.941 50.4613 299.451 51.08C299.643 51.4213 299.856 51.7733 300.091 52.136C300.347 52.4987 300.592 52.8187 300.827 53.096H303.931ZM326.713 77C328.164 74.888 329.241 72.552 329.945 69.992C330.649 67.4107 331.001 64.8293 331.001 62.248C331.001 59.6667 330.639 57.1067 329.913 54.568C329.209 52.0293 328.153 49.7253 326.745 47.656H331.161C332.676 49.6613 333.817 51.9333 334.585 54.472C335.353 57.0107 335.737 59.6027 335.737 62.248C335.737 64.936 335.353 67.56 334.585 70.12C333.817 72.6587 332.676 74.952 331.161 77H326.713Z" fill="white"/>
<defs>
<linearGradient id="paint0_linear_0_1" x1="121" y1="61.2963" x2="1.00001" y2="60.7037" gradientUnits="userSpaceOnUse">
<stop stop-color="#E20505"/>
<stop offset="1" stop-color="#E90F13"/>
</linearGradient>
</defs>
</svg>
